<svg width="28px" height="28px" viewBox="0 0 28 28" version="1.1" xmlns="http://www.w3.org/2000/svg" xmlns:xlink="http://www.w3.org/1999/xlink">
    <defs>
        <path d="M4.93716268,13.465251 L10.5370085,13.465251 L10.5370085,31.5 L4.93716268,31.5 L4.93716268,13.465251 Z M24.7864302,13.0274131 C30.351102,13.0274131 31.4623785,16.6318776 31.4990442,21.3671205 L31.5,31.5 L25.9105628,31.5 L25.9105628,22.7328185 C25.9105628,20.6374517 25.8793369,17.9478764 23.0065536,17.9478764 C20.0921357,17.9478764 19.654973,20.230888 19.654973,22.5764479 L19.654973,31.5 L14.0655359,31.5 L14.0655359,13.465251 L19.4155744,13.465251 L19.4155744,15.9359073 L19.4884348,15.9359073 C20.2378566,14.5181467 22.0593678,13.0274131 24.7864302,13.0274131 Z M7.74749422,4.5 C9.53777949,4.5 10.9949884,5.95945946 10.9949884,7.75250965 C10.9949884,9.54555985 9.53777949,11.0050193 7.74749422,11.0050193 C5.94680031,11.0050193 4.5,9.54555985 4.5,7.75250965 C4.5,5.95945946 5.94680031,4.5 7.74749422,4.5 Z" id="path-linkedin"></path>
    </defs>
    <g id="Styleguide" stroke="none" stroke-width="1" fill="none" fill-rule="evenodd">
        <g id="05---Icon" transform="translate(-1038.000000, -790.000000)">
            <rect fill="#FFFFFF" x="0" y="0" width="1440" height="1080"></rect>
            <g id="Brands" transform="translate(180.000000, 786.000000)">
                <g id="Icon/Brands/LinkedIn" transform="translate(854.000000, 0.000000)">
                    <mask id="mask-linkedin" fill="white">
                        <use xlink:href="#path-linkedin"></use>
                    </mask>
                    <g id="Shape"></g>
                    <rect id="Color" fill="#071417" fill-rule="evenodd" mask="url(#mask-linkedin)" x="0" y="0" width="36" height="36"></rect>
                </g>
            </g>
        </g>
    </g>
</svg>
