<svg width="30px" height="26px" viewBox="0 0 30 26" version="1.1" xmlns="http://www.w3.org/2000/svg" xmlns:xlink="http://www.w3.org/1999/xlink">
    <defs>
        <path d="M20.7120782,6 C18.3995372,6 16.6292477,7.89782139 16.6292477,10.0263158 L16.6292477,12.7524671 C13.7478759,12.9464429 11.1535774,13.7642883 9.05899961,15.0172697 C8.29878474,14.4300987 7.40034974,14.0945724 6.50723058,14.0945724 C5.51842076,14.0945724 4.55619016,14.4667972 3.87040258,15.2269737 C2.56793747,16.8312096 2.68489287,19.4525089 4.50834483,20.8050987 C4.42328587,21.2297488 4.38075638,21.6596426 4.38075638,22.1052632 C4.38075638,24.8628707 6.07130405,27.2639803 8.5486458,28.8996711 C11.0259889,30.5353618 14.3432887,31.5 17.9901912,31.5 C21.6370951,31.5 24.9543949,30.5353618 27.4317366,28.8996711 C29.9090798,27.2639803 31.5996261,24.8628707 31.5996261,22.1052632 C31.5996261,21.6596426 31.5145671,21.2297488 31.4295081,20.8050987 C33.2848565,19.3476569 33.4762392,16.7420844 32.1099799,15.2269737 C31.4241923,14.4667972 30.461963,14.0945724 29.4731519,14.0945724 C28.5800327,14.0945724 27.6815977,14.4300987 26.9213828,15.0172697 C24.8268064,13.7642883 22.2325079,12.9464429 19.3511347,12.7524671 L19.3511347,10.0263158 C19.3511347,9.20322813 19.7604806,8.68421053 20.7120782,8.68421053 C21.1480061,8.68421053 21.7646836,8.91488487 22.7960229,9.27138158 C23.7104068,9.5859375 24.9224971,9.91097929 26.496088,9.984375 C26.9585965,10.8127063 27.8570315,11.3684211 28.8777391,11.3684211 C30.3769041,11.3684211 31.5996261,10.162624 31.5996261,8.68421053 C31.5996261,7.20579837 30.3769041,6 28.8777391,6 C27.8889293,6 27.0170749,6.51377534 26.5386175,7.30016447 C25.331843,7.24249555 24.4812534,7.02754934 23.6891421,6.75493421 C22.780074,6.44037829 21.9082196,6 20.7120782,6 Z M28.8777391,7.34210526 C29.6964323,7.34210526 30.2386826,7.876851 30.2386826,8.68421053 C30.2386826,9.49157139 29.6964323,10.0263158 28.8777391,10.0263158 C28.0590472,10.0263158 27.5167956,9.49157139 27.5167956,8.68421053 C27.5167956,7.876851 28.0590472,7.34210526 28.8777391,7.34210526 Z M17.9901912,15.3947368 C21.1480061,15.3947368 23.954952,16.2492808 25.9006752,17.5337171 C27.8463998,18.8181534 28.8777391,20.4328738 28.8777391,22.1052632 C28.8777391,23.7776525 27.8463998,25.3923729 25.9006752,26.6768092 C23.954952,27.9612456 21.1480061,28.8157895 17.9901912,28.8157895 C14.8323777,28.8157895 12.0254318,27.9612456 10.0797072,26.6768092 C8.13398401,25.3923729 7.10264335,23.7776525 7.10264335,22.1052632 C7.10264335,20.4328738 8.13398401,18.8181534 10.0797072,17.5337171 C12.0254318,16.2492808 14.8323777,15.3947368 17.9901912,15.3947368 Z M6.54976006,15.4366776 C7.00163549,15.4366776 7.48009286,15.5310451 7.91070354,15.7722039 C6.59760539,16.7682984 5.57689778,17.9950658 4.97616916,19.3791118 C4.18405786,18.4564145 4.20000676,16.9937291 4.89111019,16.1077303 C5.29514029,15.6568674 5.90650196,15.4366776 6.54976006,15.4366776 Z M29.4306224,15.4366776 C30.0738805,15.4366776 30.6852422,15.6568674 31.0892723,16.1077303 C31.7591123,16.8521799 31.8122735,18.314864 31.0042133,19.3371711 C30.4034847,17.9636109 29.372144,16.7630548 28.0696789,15.7722039 C28.5002896,15.5310451 28.978747,15.4366776 29.4306224,15.4366776 Z M13.9073608,18.0789474 C12.7803294,18.0789474 11.8659455,18.9806743 11.8659455,20.0921053 C11.8659455,21.2035362 12.7803294,22.1052632 13.9073608,22.1052632 C15.0343921,22.1052632 15.948776,21.2035362 15.948776,20.0921053 C15.948776,18.9806743 15.0343921,18.0789474 13.9073608,18.0789474 Z M22.0730217,18.0789474 C20.9459903,18.0789474 20.0316064,18.9806743 20.0316064,20.0921053 C20.0316064,21.2035362 20.9459903,22.1052632 22.0730217,22.1052632 C23.200053,22.1052632 24.1144369,21.2035362 24.1144369,20.0921053 C24.1144369,18.9806743 23.200053,18.0789474 22.0730217,18.0789474 Z M23.5615536,23.9925987 C22.3388316,25.0673311 20.3027322,25.7121711 17.9901912,25.7121711 C15.6776502,25.7121711 13.6415522,25.0568466 12.4188288,24.1184211 C13.0993006,25.8642061 15.2683043,27.4736842 17.9901912,27.4736842 C20.7120782,27.4736842 22.8810819,25.8694497 23.5615536,23.9925987 Z" id="path-reddit"></path>
    </defs>
    <g id="Styleguide" stroke="none" stroke-width="1" fill="none" fill-rule="evenodd">
        <g id="05---Icon" transform="translate(-183.000000, -888.000000)">
            <rect fill="#FFFFFF" x="0" y="0" width="1440" height="1080"></rect>
            <g id="Brands" transform="translate(180.000000, 786.000000)">
                <g id="Icon/Brands/Reddit" transform="translate(0.000000, 96.000000)">
                    <mask id="mask-reddit" fill="white">
                        <use xlink:href="#path-reddit"></use>
                    </mask>
                    <g id="Shape" fill-rule="nonzero"></g>
                    <rect id="Color" fill="#071417" fill-rule="evenodd" mask="url(#mask-reddit)" x="0" y="0" width="36" height="36"></rect>
                </g>
            </g>
        </g>
    </g>
</svg>
