<svg width="30px" height="30px" viewBox="0 0 30 30" version="1.1" xmlns="http://www.w3.org/2000/svg" xmlns:xlink="http://www.w3.org/1999/xlink">
    <defs>
        <path d="M28.6155,7.392 C25.7865,4.5615 22.0245,3.0015 18.0165,3 C9.7575,3 3.036,9.7185 3.033,17.9775 C3.0315,20.6175 3.7215,23.1945 5.0325,25.4655 L3,33 L10.8495,31.1445 C13.038,32.3385 15.501,32.967 18.009,32.9685 L18.015,32.9685 C26.2725,32.9685 32.994,26.2485 32.9985043,17.991 C33.0015,13.9875 31.4445,10.224 28.6155,7.392 Z M25.347,23.331 C25.035,24.2055 23.5065,25.0485 22.8195,25.11 C22.1325,25.173 21.489,25.4205 18.327,24.174 C14.5215,22.674 12.1185,18.7725 11.9325,18.5235 C11.745,18.273 10.404,16.494 10.404,14.652 C10.404,12.81 11.3715,11.904 11.715,11.5305 C12.0585,11.1555 12.4635,11.0625 12.714,11.0625 C12.963,11.0625 13.2135,11.0625 13.431,11.0715 C13.698,11.082 13.9935,11.0955 14.274,11.718 C14.607,12.459 15.3345,14.31 15.4275,14.4975 C15.5205,14.685 15.5835,14.904 15.459,15.153 C15.3345,15.402 15.2715,15.558 15.0855,15.777 C14.898,15.996 14.6925,16.2645 14.5245,16.4325 C14.337,16.6185 14.142,16.8225 14.3595,17.196 C14.5785,17.571 15.3285,18.7965 16.4415,19.788 C17.8725,21.063 19.077,21.4575 19.452,21.6465 C19.827,21.834 20.0445,21.8025 20.2635,21.552 C20.4825,21.303 21.1995,20.46 21.4485,20.085 C21.6975,19.71 21.948,19.773 22.2915,19.8975 C22.635,20.022 24.4755,20.928 24.849,21.1155 C25.224,21.303 25.473,21.396 25.566,21.552 C25.659,21.7065 25.659,22.4565 25.347,23.331 Z" id="path-whatsapp"></path>
    </defs>
    <g id="Styleguide" stroke="none" stroke-width="1" fill="none" fill-rule="evenodd">
        <g id="05---Icon" transform="translate(-1132.000000, -885.000000)">
            <rect fill="#FFFFFF" x="0" y="0" width="1440" height="1080"></rect>
            <g id="Brands" transform="translate(180.000000, 786.000000)">
                <g id="Icon/Brands/WhatsApp" transform="translate(949.000000, 96.000000)">
                    <mask id="mask-whatsapp" fill="white">
                        <use xlink:href="#path-whatsapp"></use>
                    </mask>
                    <g id="Shape" fill-rule="nonzero"></g>
                    <rect id="Color" fill="#071417" fill-rule="evenodd" mask="url(#mask-whatsapp)" x="0" y="0" width="36" height="36"></rect>
                </g>
            </g>
        </g>
    </g>
</svg>
