<svg width="28px" height="28px" viewBox="0 0 28 28" version="1.1" xmlns="http://www.w3.org/2000/svg" xmlns:xlink="http://www.w3.org/1999/xlink">
    <defs>
        <path d="M14.6547315,30.8092249 C14.6547315,30.4803702 14.643129,29.6102224 14.636499,28.4545573 C10.8814113,29.290715 10.0891218,26.5986952 10.0891218,26.5986952 C9.47501457,24.9994587 8.58990454,24.5737321 8.58990454,24.5737321 C7.36417631,23.7146311 8.68272506,23.7324759 8.68272506,23.7324759 C10.037739,23.8301976 10.7504681,25.1592124 10.7504681,25.1592124 C11.9546487,27.2742494 13.9096811,26.6641262 14.6795942,26.3097789 C14.8022499,25.4149883 15.1511557,24.8048651 15.5365266,24.4590154 C12.5389208,24.1097666 9.38716657,22.9218109 9.38716657,17.6176482 C9.38716657,16.106786 9.91342582,14.8712441 10.7769882,13.9033747 C10.6385862,13.5532761 10.1744836,12.1460839 10.909589,10.2400864 C10.909589,10.2400864 12.0433255,9.86789424 14.6215814,11.6591751 C15.6981337,11.352414 16.8534178,11.1977588 18.0020718,11.1926603 C19.1482397,11.1977588 20.302695,11.352414 21.3817336,11.6591751 C23.958332,9.86789424 25.0904109,10.2400864 25.0904109,10.2400864 C25.8271739,12.1452342 25.3639001,13.5524264 25.2246692,13.9033747 C26.0898891,14.8712441 26.6120046,16.106786 26.6120046,17.6176482 C26.6120046,22.9354069 23.4552779,24.1055178 20.4477271,24.4479685 C20.9333773,24.8753947 21.3643298,25.7200498 21.3643298,27.0116755 C21.3643298,28.8624391 21.3469259,30.3554564 21.3469259,30.8092249 C21.3469259,31.1797175 21.5905798,31.6096929 22.2759599,31.474582 C27.6355167,29.6408135 31.5,24.4556163 31.5,18.342488 C31.5,10.6972539 25.4550631,4.5 17.9995856,4.5 C10.5449369,4.5 4.5,10.6972539 4.5,18.342488 C4.50082875,24.4573159 8.36862702,29.645912 13.7331563,31.4762815 C14.4077627,31.6028948 14.6547315,31.1754687 14.6547315,30.8092249 Z" id="path-github"></path>
    </defs>
    <g id="Styleguide" stroke="none" stroke-width="1" fill="none" fill-rule="evenodd">
        <g id="05---Icon" transform="translate(-753.000000, -790.000000)">
            <rect fill="#FFFFFF" x="0" y="0" width="1440" height="1080"></rect>
            <g id="Brands" transform="translate(180.000000, 786.000000)">
                <g id="Icon/Brands/GitHub" transform="translate(569.000000, 0.000000)">
                    <mask id="mask-github" fill="white">
                        <use xlink:href="#path-github"></use>
                    </mask>
                    <g id="Shape" fill-rule="nonzero"></g>
                    <rect id="Color" fill="#071417" fill-rule="evenodd" mask="url(#mask-github)" x="0" y="0" width="36" height="36"></rect>
                </g>
            </g>
        </g>
    </g>
</svg>
