<svg width="28px" height="28px" viewBox="0 0 28 28" version="1.1" xmlns="http://www.w3.org/2000/svg" xmlns:xlink="http://www.w3.org/1999/xlink">
    <defs>
        <path d="M18.9515741,4.50056736 C21.7670234,4.50427906 22.2663495,4.52673396 23.5710974,4.58346213 C25.0003864,4.64605873 25.9914992,4.8755796 26.8469861,5.20942813 C27.7337713,5.55370943 28.4849304,6.01275116 29.2360896,6.76391036 C29.9872488,7.51506955 30.4462906,8.26622875 30.7905719,9.15301391 C31.1244204,10.0085008 31.3539413,10.9891808 31.4165379,12.4289026 C31.4895672,13.8686244 31.5,14.3276662 31.5,18 C31.5,21.6723338 31.4791345,22.1313756 31.4165379,23.5710974 C31.3539413,25.0003864 31.1244204,25.9914992 30.7905719,26.8469861 C30.4462906,27.7337713 29.9872488,28.4849304 29.2360896,29.2360896 C28.4849304,29.9872488 27.7337713,30.4462906 26.8469861,30.7905719 C25.9914992,31.1244204 25.0108192,31.3539413 23.5710974,31.4165379 C22.1313756,31.4895672 21.6723338,31.5 18,31.5 C14.3276662,31.5 13.8686244,31.4791345 12.4289026,31.4165379 C10.9996136,31.3539413 10.0085008,31.1244204 9.15301391,30.7905719 C8.26622875,30.4462906 7.51506955,29.9872488 6.76391036,29.2360896 C6.01275116,28.4849304 5.55370943,27.7337713 5.20942813,26.8469861 C4.8755796,25.9914992 4.64605873,25.0108192 4.58346213,23.5710974 C4.52184361,22.3563321 4.50478848,21.8397268 4.50096311,19.5020567 L4.50056736,17.0484259 C4.50427906,14.2329766 4.52673396,13.7336505 4.58346213,12.4289026 C4.64605873,10.9996136 4.8755796,10.0085008 5.20942813,9.15301391 C5.55370943,8.26622875 6.01275116,7.51506955 6.76391036,6.76391036 C7.51506955,6.01275116 8.26622875,5.55370943 9.15301391,5.20942813 C10.0085008,4.8755796 10.9891808,4.64605873 12.4289026,4.58346213 C13.590852,4.52452267 14.1140313,4.50635577 16.2031502,4.50153967 L16.4979433,4.50096311 L18.9515741,4.50056736 Z M19.1705819,7.87562147 L17.0963771,7.8755911 C14.6234746,7.87919492 14.1893008,7.89978814 13.0137712,7.95127119 C11.8125,8.00847458 11.1641949,8.20868644 10.7256356,8.38029661 C10.1440678,8.60911017 9.73411017,8.87605932 9.30508475,9.30508475 C8.87605932,9.73411017 8.59957627,10.1536017 8.38029661,10.7256356 C8.20868644,11.154661 8.00847458,11.8125 7.95127119,13.0137712 C7.8934322,14.1375 7.87855932,14.5880932 7.87562147,16.8294181 L7.8755911,18.9036229 C7.87919492,21.3765254 7.89978814,21.8106992 7.95127119,22.9862288 C8.00847458,24.1875 8.20868644,24.8358051 8.38029661,25.2743644 C8.60911017,25.8559322 8.87605932,26.2658898 9.30508475,26.6949153 C9.73411017,27.1239407 10.1536017,27.4004237 10.7256356,27.6197034 C11.154661,27.7913136 11.8125,27.9915254 13.0137712,28.0487288 C14.3103814,28.1154661 14.7012712,28.125 18,28.125 C21.2987288,28.125 21.6800847,28.1059322 22.9862288,28.0487288 C24.1875,27.9915254 24.8358051,27.7913136 25.2743644,27.6197034 C25.8559322,27.3908898 26.2658898,27.1239407 26.6949153,26.6949153 C27.1239407,26.2658898 27.4004237,25.8463983 27.6197034,25.2743644 C27.7913136,24.845339 27.9915254,24.1875 28.0487288,22.9862288 C28.1059322,21.6896186 28.125,21.2891949 28.125,18 C28.125,14.7108051 28.1059322,14.3199153 28.0487288,13.0137712 C27.9915254,11.8125 27.7913136,11.1641949 27.6197034,10.7256356 C27.3908898,10.1440678 27.1239407,9.73411017 26.6949153,9.30508475 C26.2658898,8.87605932 25.8463983,8.59957627 25.2743644,8.38029661 C24.845339,8.20868644 24.1875,8.00847458 22.9862288,7.95127119 C21.8625,7.8934322 21.4119068,7.87855932 19.1705819,7.87562147 Z M18,11.25 C21.725188,11.25 24.75,14.274812 24.75,18 C24.75,21.725188 21.725188,24.75 18,24.75 C14.274812,24.75 11.25,21.725188 11.25,18 C11.25,14.274812 14.274812,11.25 18,11.25 Z M18,14.625 C16.1328125,14.625 14.625,16.140625 14.625,18 C14.625,19.8671875 16.140625,21.375 18,21.375 C19.859375,21.375 21.375,19.859375 21.375,18 C21.375,16.1328125 19.8671875,14.625 18,14.625 Z M24.75,9.5625 C25.6819805,9.5625 26.4375,10.3180195 26.4375,11.25 C26.4375,12.1819805 25.6819805,12.9375 24.75,12.9375 C23.8180195,12.9375 23.0625,12.1819805 23.0625,11.25 C23.0625,10.3180195 23.8180195,9.5625 24.75,9.5625 Z" id="path-instagram"></path>
    </defs>
    <g id="Styleguide" stroke="none" stroke-width="1" fill="none" fill-rule="evenodd">
        <g id="05---Icon" transform="translate(-943.000000, -790.000000)">
            <rect fill="#FFFFFF" x="0" y="0" width="1440" height="1080"></rect>
            <g id="Brands" transform="translate(180.000000, 786.000000)">
                <g id="Icon/Brands/Instagram" transform="translate(759.000000, 0.000000)">
                    <mask id="mask-instagram" fill="white">
                        <use xlink:href="#path-instagram"></use>
                    </mask>
                    <g id="Shape"></g>
                    <rect id="Color" fill="#071417" fill-rule="evenodd" mask="url(#mask-instagram)" x="0" y="0" width="36" height="36"></rect>
                </g>
            </g>
        </g>
    </g>
</svg>
