<svg width="30px" height="26px" viewBox="0 0 30 26" version="1.1" xmlns="http://www.w3.org/2000/svg" xmlns:xlink="http://www.w3.org/1999/xlink">
    <defs>
        <path d="M30.9774801,6.16788585 C32.1904001,5.61155105 33.3608053,6.4631615 32.8956443,8.34760308 L32.8956443,8.34760308 L28.369077,29.9584855 C28.0539679,31.4956931 27.1374005,31.8619363 25.8682111,31.1522609 L25.8682111,31.1522609 L18.978,25.993 L15.6646782,29.2551465 C15.3093468,29.6048095 15.0244131,29.9022941 14.4477319,29.9494466 L14.2829497,29.955951 L14.296,29.75 L14.1435582,29.9527415 C13.4055356,29.9161999 13.5243538,29.5647847 13.2338365,28.7533047 L10.888,20.93 L4.07066381,18.7772965 C2.64396015,18.334567 2.58974002,17.358948 4.23098962,16.6280087 L4.40077811,16.5557592 Z" id="path-telegram"></path>
    </defs>
    <g id="Styleguide" stroke="none" stroke-width="1" fill="none" fill-rule="evenodd">
        <g id="05---Icon" transform="translate(-657.000000, -888.000000)">
            <rect fill="#FFFFFF" x="0" y="0" width="1440" height="1080"></rect>
            <g id="Brands" transform="translate(180.000000, 786.000000)">
                <g id="Icon/Brands/Telegram" transform="translate(474.000000, 96.000000)">
                    <mask id="mask-telegram" fill="white">
                        <use xlink:href="#path-telegram"></use>
                    </mask>
                    <g id="Shape"></g>
                    <rect id="Color" fill="#071417" fill-rule="evenodd" mask="url(#mask-telegram)" x="0" y="0" width="36" height="36"></rect>
                </g>
            </g>
        </g>
    </g>
</svg>
