<svg width="30px" height="24px" viewBox="0 0 30 24" version="1.1" xmlns="http://www.w3.org/2000/svg" xmlns:xlink="http://www.w3.org/1999/xlink">
    <defs>
        <path d="M33,8.84030769 C31.8962866,9.32307692 30.7109902,9.64892308 29.4647412,9.79384615 C30.7353713,9.04430769 31.7115529,7.85723077 32.1719805,6.44307692 C30.9819955,7.13630769 29.6654164,7.64215385 28.2635034,7.91261538 C27.1400975,6.73569231 25.5403226,6 23.7689422,6 C20.3696549,6 17.6155289,8.712 17.6155289,12.0581538 C17.6155289,12.5326154 17.6689797,12.996 17.774006,13.4390769 C12.6586647,13.1861538 8.12378095,10.7741538 5.08739685,7.10861538 C4.55851463,8.004 4.25468867,9.04430769 4.25468867,10.1547692 C4.25468867,12.2575385 5.34152288,14.1110769 6.99193548,15.1984615 C5.98387097,15.1661538 5.03488372,14.8947692 4.20498875,14.4406154 C4.20405101,14.4655385 4.20405101,14.4923077 4.20405101,14.5163077 C4.20405101,17.4526154 6.3252063,19.9015385 9.14122281,20.4581538 C8.62546887,20.5956923 8.0815829,20.6704615 7.51987997,20.6704615 C7.12228057,20.6704615 6.73780945,20.6326154 6.36271568,20.5624615 C7.1447862,22.968 9.4187922,24.72 12.1110278,24.7698462 C10.005814,26.3944615 7.35202551,27.3646154 4.46849212,27.3646154 C3.97149287,27.3646154 3.48105776,27.336 3,27.2796923 C5.7231808,28.9966154 8.95836459,30 12.4345461,30 C23.7548762,30 29.9467367,20.7683077 29.9467367,12.7615385 C29.9467367,12.4993846 29.9392348,12.2372308 29.927982,11.9769231 C31.1310953,11.1230769 32.173856,10.0569231 33,8.84030769 Z" id="path-twitter"></path>
    </defs>
    <g id="Styleguide" stroke="none" stroke-width="1" fill="none" fill-rule="evenodd">
        <g id="05---Icon" transform="translate(-942.000000, -888.000000)">
            <rect fill="#FFFFFF" x="0" y="0" width="1440" height="1080"></rect>
            <g id="Brands" transform="translate(180.000000, 786.000000)">
                <g id="Icon/Brands/Twitter" transform="translate(759.000000, 96.000000)">
                    <mask id="mask-twitter" fill="white">
                        <use xlink:href="#path-twitter"></use>
                    </mask>
                    <g id="Shape"></g>
                    <rect id="Color" fill="#071417" fill-rule="evenodd" mask="url(#mask-twitter)" x="0" y="0" width="36" height="36"></rect>
                </g>
            </g>
        </g>
    </g>
</svg>
